Coordinates
version=1
nRows=10
nColumns=63
inDegrees=yes

Units are S.I. units (second, meters, Newtons, ...)
If the header above contains a line with 'inDegrees', this indicates whether rotational values are in degrees (yes) or radians (no).

endheader
time	pelvis_tilt	pelvis_list	pelvis_rotation	pelvis_tx	pelvis_ty	pelvis_tz	hip_flexion_r	hip_adduction_r	hip_rotation_r	knee_angle_r	knee_angle_r_beta	ankle_angle_r	subtalar_angle_r	mtp_angle_r	hip_flexion_l	hip_adduction_l	hip_rotation_l	knee_angle_l	knee_angle_l_beta	ankle_angle_l	subtalar_angle_l	mtp_angle_l	L5_S1_Flex_Ext	L5_S1_Lat_Bending	L5_S1_axial_rotation	L4_L5_Flex_Ext	L4_L5_Lat_Bending	L4_L5_axial_rotation	L3_L4_Flex_Ext	L3_L4_Lat_Bending	L3_L4_axial_rotation	L2_L3_Flex_Ext	L2_L3_Lat_Bending	L2_L3_axial_rotation	L1_L2_Flex_Ext	L1_L2_Lat_Bending	L1_L2_axial_rotation	L1_T12_Flex_Ext	L1_T12_Lat_Bending	L1_T12_axial_rotation	Abs_r3	Abs_r2	Abs_r1	Abs_t1	Abs_t2	neck_flexion	neck_bending	neck_rotation	arm_flex_r	arm_add_r	arm_rot_r	elbow_flex_r	pro_sup_r	wrist_flex_r	wrist_dev_r	arm_flex_l	arm_add_l	arm_rot_l	elbow_flex_l	pro_sup_l	wrist_flex_l	wrist_dev_l
      3.10344828	     10.39600321	     -2.73250161	     85.67817349	      0.47306465	      0.74264011	      0.70055334	      3.51158531	      6.79813212	     14.20876639	      0.23913930	      0.00417377	     27.48134397	     -8.26450659	      0.00000000	      6.39233993	     -7.51159476	      2.94432470	      9.25046101	      0.16145100	     33.12961752	     -4.47089073	      0.00000000	      0.29672216	      0.25652221	      1.08324895	      0.55104272	      0.34117453	      1.15095201	      0.48748483	      0.62370809	      1.15095201	      0.33912375	      0.62370809	      0.94784283	      0.27553620	      0.52310008	      0.88013977	      0.16954704	      0.39735290	      0.81243671	      2.11945670	      2.90183050	      6.02470570	      0.00000000	      0.00000000	     28.28777522	     -1.84923975	    -21.36085269	     -8.80965807	    -18.78877704	     19.43312571	     57.25784910	     84.50760071	     -7.03719357	      6.31204009	      9.80817409	    -22.30730701	    125.57281428	      2.27824292	      2.76747803	     -3.36413579	     -4.02323762
      3.12068966	     10.37454319	     -3.20395565	     86.27894953	      0.47231510	      0.74186022	      0.70133415	      4.06025048	      6.71334579	     13.16330460	      0.25037418	      0.00436985	     27.65464062	     -7.25902313	      0.00000000	      7.31732717	     -7.40372898	      4.06790948	      9.62215939	      0.16793836	     33.46962652	     -5.02038125	      0.00000000	      0.33631557	      0.24798665	      0.94444161	      0.62457165	      0.32982225	      1.00346921	      0.55253285	      0.60295474	      1.00346921	      0.38437507	      0.60295474	      0.82638641	      0.31230264	      0.50569438	      0.76735881	      0.19217072	      0.38413132	      0.70833121	      2.40226849	      2.80527460	      5.25270090	      0.00000000	      0.00000000	     28.30156971	     -1.93413652	    -21.72389606	     -7.03352240	    -18.83507781	     20.11075929	     57.42736260	     82.84253193	     -6.18279015	      6.29304071	     12.76103636	    -23.06767634	    119.41978120	      2.87689086	      2.43375074	     -4.91854654	     -3.81858165
      3.13793103	     10.39893351	     -3.68696112	     86.90238413	      0.47119520	      0.74122122	      0.70215391	      4.61581795	      6.65094948	     12.34802628	      0.26895127	      0.00469409	     27.60967442	     -6.70471947	      0.00000000	      8.24192897	     -7.25730166	      5.73325876	     10.01795298	      0.17484626	     33.65741005	     -6.12300015	      0.00000000	      0.37798270	      0.25280801	      0.85124138	      0.70195168	      0.33623465	      0.90444396	      0.62098778	      0.61467738	      0.90444396	      0.43199643	      0.61467738	      0.74483621	      0.35099474	      0.51552608	      0.69163362	      0.21597932	      0.39159960	      0.63843103	      2.69989265	      2.85981472	      4.73434917	      0.00000000	      0.00000000	     28.31125656	     -2.38606171	    -22.12900085	     -4.81859404	    -19.12691054	     21.21434861	     57.45361637	     80.21792918	     -5.24523601	      6.31934692	     15.92896341	    -23.49678434	    115.32723214	      3.42014992	      2.23325623	     -6.24876869	     -4.58371086
      3.15517241	     10.48153814	     -4.16736406	     87.50586317	      0.46965494	      0.74072077	      0.70323008	      5.19261863	      6.62234811	     11.82612229	      0.29786534	      0.00519873	     27.33584276	     -6.70089685	      0.00000000	      9.13857615	     -7.14742950	      7.14425968	     10.43418764	      0.18211093	     33.81443166	     -6.70007050	      0.00000000	      0.41909957	      0.27196873	      0.83394165	      0.77830981	      0.36171841	      0.88606301	      0.68853868	      0.66126478	      0.88606301	      0.47898890	      0.66126478	      0.72969895	      0.38917586	      0.55459864	      0.67757759	      0.23947349	      0.42127957	      0.62545624	      2.99358631	      3.07656469	      4.63813329	      0.00000000	      0.00000000	     28.31366755	     -3.31470613	    -22.95472520	     -2.42415804	    -19.60840489	     22.22197118	     57.41813847	     78.31807664	     -4.15603851	      6.72686936	     19.27232764	    -23.33714076	    113.91540430	      3.50690834	      1.95722030	     -7.13445572	     -6.27592596
      3.17241379	     10.56381271	     -4.56423204	     87.74478618	      0.46822692	      0.74047652	      0.70477241	      5.71394121	      6.59771537	     11.65153052	      0.34479979	      0.00601789	     27.01807507	     -6.60758558	      0.00000000	      9.89323425	     -7.05674598	      8.13927126	     10.94785442	      0.19107611	     33.82188122	     -7.06403636	      0.00000000	      0.44923120	      0.30598824	      0.92147665	      0.83426726	      0.40696436	      0.97906894	      0.73804193	      0.74397981	      0.97906894	      0.51342634	      0.74397981	      0.80629207	      0.41715609	      0.62397122	      0.74869978	      0.25669071	      0.47397579	      0.69110748	      3.20881352	      3.46140020	      5.12497666	      0.00000000	      0.00000000	     28.31882750	     -4.42374570	    -23.06607311	      0.11925493	    -20.36182428	     23.40273696	     57.38899700	     77.77216046	     -3.51575353	      7.27111874	     22.74567835	    -22.66617579	    113.59700449	      3.47081252	      1.73034806	     -7.27180198	     -8.24299100
      3.18965517	     10.77819586	     -4.89840000	     88.36023400	      0.46543066	      0.74022348	      0.70653477	      6.19131653	      6.62815322	     11.50431647	      0.38461361	      0.00671277	     26.36380907	     -7.40687839	      0.00000000	     10.59519477	     -6.65813763	     12.93157057	     11.48098861	      0.20038105	     32.48104204	    -12.12326347	      0.00000000	      0.47761629	      0.36628457	      0.97067213	      0.88698122	      0.48715848	      1.03133914	      0.78467581	      0.89058432	      1.03133914	      0.54586766	      0.89058432	      0.84933811	      0.44351449	      0.74692751	      0.78867110	      0.27290995	      0.56737481	      0.72800410	      3.41156542	      4.14348437	      5.39858717	      0.00000000	      0.00000000	     28.31899335	     -5.55917815	    -23.03319585	      2.55728354	    -21.54361989	     24.83893855	     57.52781216	     77.34195988	     -3.41233741	      7.64907947	     26.07271966	    -21.20316902	    114.87051569	      2.82835964	      1.48357227	     -7.18757863	    -10.00610894
      3.20689655	     11.00428724	     -5.17328165	     88.49465549	      0.46356246	      0.74031921	      0.70842283	      6.61062415	      6.74381664	     11.49329952	      0.45238999	      0.00789569	     25.68616530	     -7.76388232	      0.00000000	     11.09935094	     -6.65755501	     14.17982316	     11.87304608	      0.20722375	     32.08059734	    -12.70943589	      0.00000000	      0.49875002	      0.43217894	      1.11602330	      0.92622866	      0.57479799	      1.18577476	      0.81939641	      1.05079988	      1.18577476	      0.57002140	      1.05079988	      0.97652039	      0.46313927	      0.88129930	      0.90676893	      0.28498576	      0.66944518	      0.83701747	      3.56252152	      4.88889462	      6.20698679	      0.00000000	      0.00000000	     28.31801491	     -6.74229266	    -22.75791404	      4.62135302	    -22.57921799	     25.52790286	     57.87135346	     80.72082967	     -3.64861835	      7.87079631	     29.25841259	    -19.41770336	    116.72701705	      2.21449909	      1.33850971	     -7.18276615	    -11.76108690
      3.22413793	     11.12107100	     -5.39041884	     88.54742414	      0.46180441	      0.74059590	      0.71030042	      6.98205336	      6.76180423	     11.64066364	      0.53510652	      0.00933937	     24.93770493	     -8.36085504	      0.00000000	     11.50650312	     -6.55276109	     15.37998192	     12.22757322	      0.21341141	     31.51834470	    -13.48398676	      0.00000000	      0.51013411	      0.48958957	      1.25710927	      0.94737006	      0.65115413	      1.33567860	      0.83809933	      1.19038809	      1.33567860	      0.58303228	      1.19038809	      1.09997062	      0.47371054	      0.99837106	      1.02140129	      0.29149063	      0.75837425	      0.94283196	      3.64383695	      5.53833519	      6.99166465	      0.00000000	      0.00000000	     28.31708459	     -7.73363799	    -22.14219713	      6.41971440	    -23.51697019	     26.12579622	     58.36760649	     85.41883636	     -4.64791713	      7.64372502	     32.23881352	    -17.44897572	    119.79664306	      1.61270907	      1.20267715	     -7.27005599	    -13.05392110
      3.24137931	     11.38025855	     -5.51116433	     88.36066060	      0.46018410	      0.74107726	      0.71210690	      7.24167227	      6.95668124	     11.61867970	      0.59457053	      0.01037721	     24.23678463	     -8.44588165	      0.00000000	     11.73998279	     -6.71108932	     15.64624813	     12.48043738	      0.21782472	     31.22138332	    -13.57036435	      0.00000000	      0.49907803	      0.56998731	      1.39050925	      0.92683781	      0.75808312	      1.47741608	      0.81993530	      1.38586714	      1.47741608	      0.57039628	      1.38586714	      1.21669560	      0.46344386	      1.16231812	      1.12978877	      0.28517319	      0.88291034	      1.04288194	      3.56486448	      6.44781045	      7.73359531	      0.00000000	      0.00000000	     28.31162588	     -8.80312528	    -21.44567524	      8.33535868	    -24.63337737	     27.50854382	     58.83575399	     87.82851762	     -6.02779092	      6.83184292	     34.84319954	    -15.41052589	    121.80408724	      1.41815498	      1.26412409	     -7.49787812	    -15.02870714
      3.25862069	     11.57122196	     -5.77540079	     88.16846882	      0.45883502	      0.74139509	      0.71334499	      7.64993995	      7.10460537	     11.94376098	      0.67170898	      0.01172353	     23.52376670	     -8.85407506	      0.00000000	     11.99141987	     -6.83532889	     15.95403175	     12.46826702	      0.21761231	     30.90284740	    -14.04688775	      0.00000000	      0.51478598	      0.64023212	      1.45425187	      0.95600905	      0.85150872	      1.54514261	      0.84574189	      1.55666038	      1.54514261	      0.58834890	      1.55666038	      1.27247039	      0.47803026	      1.30556134	      1.18157964	      0.29414871	      0.99171955	      1.09068890	      3.67706481	      7.24243379	      8.08811262	      0.00000000	      0.00000000	     28.30373815	     -9.29408909	    -20.13820950	     10.34192824	    -25.49236948	     30.09511558	     59.04911419	     88.61047615	    -10.19397304	      4.89961932	     37.01331669	    -13.41818897	    126.35551652	      0.97794649	      1.18033030	     -8.46301991	    -16.66909217
